<?xml version="1.0" standalone="no"?>
<!DOCTYPE svg PUBLIC "-//W3C//DTD SVG 20010904//EN"
 "http://www.w3.org/TR/2001/REC-SVG-20010904/DTD/svg10.dtd">
<svg version="1.0" xmlns="http://www.w3.org/2000/svg"
 width="400.000000pt" height="400.000000pt" viewBox="0 0 400.000000 400.000000"
 preserveAspectRatio="xMidYMid meet">
<metadata>
Created by potrace 1.14, written by Peter Selinger 2001-2017
</metadata>
<g transform="translate(0.000000,400.000000) scale(0.100000,-0.100000)"
fill="#000000" stroke="none">
<path d="M0 2000 l0 -2000 2000 0 2000 0 0 2000 0 2000 -2000 0 -2000 0 0
-2000z m413 1720 c309 -43 757 -317 757 -462 0 -37 -23 -82 -52 -102 -31 -22
-93 -20 -156 4 -78 30 -108 27 -148 -15 -38 -40 -48 -82 -42 -160 4 -44 14
-68 57 -133 62 -95 76 -137 62 -190 -26 -95 -142 -138 -265 -96 -156 53 -371
395 -448 712 -29 123 -31 301 -3 356 30 59 62 79 157 95 4 0 40 -4 81 -9z
m3304 -5 c86 -26 123 -89 123 -210 0 -312 -238 -809 -440 -919 -60 -33 -149
-44 -203 -27 -41 14 -93 69 -103 108 -11 41 12 108 58 175 85 127 91 255 13
316 -35 27 -79 28 -145 2 -75 -29 -125 -27 -160 9 -63 63 -53 130 33 216 118
117 291 221 473 284 169 59 264 72 351 46z m-1480 -274 c110 -23 197 -67 254
-128 74 -81 130 -234 132 -363 1 -81 -15 -110 -76 -141 -55 -28 -85 -55 -108
-101 -59 -115 -13 -239 112 -304 42 -21 145 -22 186 -1 67 35 112 123 98 194
-9 51 3 40 38 -34 27 -57 32 -80 32 -140 0 -64 -3 -75 -30 -109 -58 -70 -130
-78 -278 -30 -90 30 -97 31 -97 12 0 -8 24 -29 53 -47 72 -47 145 -116 170
-164 18 -33 23 -63 27 -169 4 -108 8 -131 22 -140 14 -8 22 -6 40 12 20 20 23
35 28 140 6 125 22 173 72 219 34 32 344 183 375 183 38 0 118 -83 132 -137 8
-30 11 -203 9 -585 l-3 -543 -28 -57 c-39 -80 -91 -120 -272 -213 -126 -65
-159 -78 -173 -69 -15 10 -17 40 -22 300 -3 159 -9 295 -13 302 -5 6 -20 12
-35 12 -38 -1 -271 -129 -296 -163 -20 -27 -21 -44 -26 -338 l-5 -309 -30 -29
c-49 -48 -392 -219 -471 -236 -58 -12 -154 -11 -154 2 0 2 16 17 35 34 19 17
39 47 45 67 14 51 14 1055 -1 1121 -22 102 -42 118 -317 251 -435 211 -417
200 -420 240 -8 82 44 160 164 246 115 82 108 98 -22 53 -141 -50 -223 -34
-282 52 -21 30 -23 43 -20 109 4 59 11 87 33 128 32 59 44 66 37 22 -12 -83
53 -177 138 -200 80 -22 207 26 248 92 37 59 46 119 28 180 -17 58 -52 99
-132 151 -27 18 -54 43 -61 57 -28 55 -3 217 51 336 42 92 133 176 230 211
126 46 418 58 583 24z m-819 -733 c17 -17 15 -73 -3 -88 -8 -7 -26 -12 -40
-12 -51 0 -74 55 -38 94 18 20 63 24 81 6z m1232 -8 c24 -24 25 -38 4 -68 -30
-43 -104 -20 -104 33 0 51 62 73 100 35z m-1753 -462 c144 -71 172 -89 196
-123 35 -52 51 -104 33 -111 -7 -3 -116 44 -243 104 -126 60 -239 113 -251
116 -13 5 -35 1 -54 -8 -37 -19 -38 -19 -38 -6 0 18 74 93 105 107 17 7 42 11
57 8 15 -2 102 -42 195 -87z m92 -487 c93 -47 121 -66 130 -88 7 -19 11 -79 9
-172 -3 -121 -6 -146 -19 -154 -13 -8 -43 2 -133 47 -154 75 -156 78 -156 254
0 134 8 172 36 172 8 0 68 -27 133 -59z m-326 -511 c149 -70 147 -67 147 -262
0 -130 -3 -160 -15 -164 -21 -8 -143 55 -183 96 -65 66 -85 122 -90 242 -4
115 -1 138 21 138 8 0 62 -22 120 -50z m656 -290 c163 -81 161 -78 161 -262 0
-153 -7 -188 -38 -188 -9 0 -71 29 -136 63 -160 83 -160 83 -152 282 6 142 12
164 39 165 4 0 61 -27 126 -60z"/>
<path d="M1868 2580 c-61 -18 -108 -73 -108 -126 0 -56 61 -84 102 -47 10 9
21 14 24 10 11 -11 -17 -47 -36 -47 -28 0 -26 -41 3 -68 13 -12 41 -28 62 -35
l40 -14 3 -74 c3 -87 -11 -120 -55 -134 -17 -6 -51 -24 -75 -41 -99 -71 -165
-83 -238 -45 -51 26 -77 27 -85 1 -10 -30 17 -64 70 -90 37 -18 59 -21 118
-18 61 3 85 10 156 46 119 59 170 59 301 -3 81 -38 104 -45 157 -45 72 0 108
12 146 48 30 28 36 69 11 79 -8 3 -36 -4 -61 -17 -69 -34 -137 -25 -213 29
-33 23 -76 47 -97 54 -48 15 -63 45 -63 125 0 75 12 102 45 102 32 0 85 46 85
75 0 16 -7 25 -25 29 -28 7 -48 37 -39 61 5 13 10 10 25 -14 33 -54 109 -32
109 31 0 39 -40 91 -90 116 -38 19 -59 22 -145 21 -55 0 -112 -4 -127 -9z"/>
</g>
</svg>
